<svg id="Capa_1" enable-background="new 0 0 512 512" height="512" viewBox="0 0 512 512" width="512" xmlns="http://www.w3.org/2000/svg"><g><path d="m256 0c-64.907 0-165 85.73-165 197h165 165c0-111.27-100.093-197-165-197z" fill="#575f64"/><path d="m256 0v197h165c0-111.27-100.093-197-165-197z" fill="#474f54"/><path d="m509.656 425.984c-.015-.015-.015-.015-.015-.029-20.104-75.055-59.516-143.126-112.747-198.955h-140.894-140.669c-53.26 55.88-92.977 124.259-112.987 198.984-1.553 5.845-2.344 12.041-2.344 18.399 0 37.28 31.337 67.617 68.617 67.617h54.681l33.737-37.603 98.965.008 98.965.007 33.737 37.588h54.681c37.28 0 68.617-30.337 68.617-67.617 0-6.358-.791-12.554-2.344-18.399z" fill="#575f64"/><path d="m388.702 512h54.681c37.28 0 68.617-30.337 68.617-67.617 0-6.357-.791-12.554-2.344-18.398-.015-.015-.015-.015-.015-.029-20.104-75.056-59.516-143.127-112.747-198.956h-140.894v247.405l98.965.007z" fill="#474f54"/><path d="m361 132.334-30 34.666h-75-75l-30-34.666c-35.414 9.914-60 28.856-60 64.666 0 61.289 101.338 135 165 135s165-73.711 165-135c0-35.81-24.586-54.752-60-64.666z" fill="#474f54"/><path d="m421 197c0-35.81-24.586-54.752-60-64.666l-30 34.666h-75v165c63.662 0 165-73.711 165-135z" fill="#32393f"/><path d="m404.931 317.923c-8.57-10.122-21.079-15.923-34.351-15.923h-114.58-114.58c-13.271 0-25.781 5.801-34.351 15.923s-12.217 23.408-10.034 36.475l26.263 157.602h132.702 132.702l26.263-157.588c2.182-13.081-1.465-26.367-10.034-36.489z" fill="#f0f7ff"/><path d="m414.965 354.412c2.183-13.081-1.465-26.367-10.034-36.489s-21.079-15.923-34.351-15.923h-114.58v210h132.702z" fill="#dfe7f4"/><circle cx="256" cy="407" fill="#dfe7f4" r="15"/><path d="m271 407c0-8.286-6.716-15-15-15v30c8.284 0 15-6.716 15-15z" fill="#c7cfe1"/><path d="m256 122c-37.385 0-75.051 1.95-105 10.334v34.666c0 57.891 47.109 105 105 105s105-47.109 105-105v-34.666c-29.949-8.384-67.615-10.334-105-10.334z" fill="#fdc"/><path d="m361 167v-34.666c-29.949-8.384-67.615-10.334-105-10.334v150c57.891 0 105-47.109 105-105z" fill="#ffbfab"/></g></svg>