<svg id="Capa_1" enable-background="new 0 0 512 512" height="512" viewBox="0 0 512 512" width="512" xmlns="http://www.w3.org/2000/svg"><g><g><path d="m144.525 79.588c-3.448 0-6.572-2.359-7.4-5.86-.967-4.091 1.564-8.192 5.654-9.16l271.984-64.362c4.092-.967 8.192 1.563 9.161 5.654.967 4.091-1.564 8.192-5.654 9.16l-271.985 64.362c-.589.14-1.179.206-1.76.206z" fill="#efecef"/></g><path d="m87.871 171.641h336.258v102.518h-336.258z" fill="#efecef"/><path d="m194.489 274.159h123.021l-8.109-27.571c-1.27-4.319-5.234-7.285-9.736-7.285h-87.331c-4.502 0-8.466 2.966-9.736 7.285z" fill="#544f57"/><path d="m152.728 65.564-14.894-29.787c-1.719-3.438-5.233-5.61-9.077-5.61h-30.737c-5.605 0-10.149 4.544-10.149 10.149v131.326h336.258v-90.216c0-5.662-4.59-10.252-10.252-10.252h-252.072c-3.844 0-7.358-2.172-9.077-5.61z" fill="#544f57"/><path d="m120.677 110.069v22.678c0 3.363 2.726 6.089 6.089 6.089h90.339c3.363 0 6.089-2.726 6.089-6.089v-22.678c0-3.363-2.726-6.089-6.089-6.089h-90.339c-3.363-.001-6.089 2.726-6.089 6.089z" fill="#bed8fb"/><path d="m413.877 71.174h-21.529c5.662 0 10.252 4.59 10.252 10.252v90.216h21.529v-90.216c0-5.662-4.59-10.252-10.252-10.252z" fill="#454045"/><path d="m393.477 512h-15.196c-4.439 0-8.363-2.885-9.687-7.122l-8.026-25.684h43.057v22.657c.001 5.605-4.543 10.149-10.148 10.149z" fill="#544f57"/><path d="m118.523 512h15.196c4.439 0 8.363-2.885 9.687-7.122l8.026-25.684h-43.057v22.657c-.001 5.605 4.543 10.149 10.148 10.149z" fill="#544f57"/><path d="m87.871 274.159h336.258v102.518h-336.258z" fill="#efecef"/><path d="m194.489 376.677h123.021l-8.109-27.571c-1.27-4.319-5.234-7.285-9.736-7.285h-87.331c-4.502 0-8.466 2.966-9.736 7.285z" fill="#544f57"/><path d="m413.877 479.194h-315.754c-5.662 0-10.252-4.59-10.252-10.252v-92.266h336.258v92.266c0 5.662-4.59 10.252-10.252 10.252z" fill="#efecef"/><g fill="#d3ced5"><path d="m402.6 171.641h21.529v102.518h-21.529z"/><path d="m402.6 274.159h21.529v102.518h-21.529z"/><path d="m402.6 376.677v92.266c0 5.662-4.59 10.252-10.252 10.252h21.529c5.662 0 10.252-4.59 10.252-10.252v-92.266z"/></g><path d="m194.489 479.194h123.021l-8.109-27.571c-1.27-4.319-5.234-7.285-9.736-7.285h-87.331c-4.502 0-8.466 2.966-9.736 7.285z" fill="#544f57"/><circle cx="373.895" cy="121.407" fill="#e28086" r="17.428"/><g><g><path d="m315.461 111.591h-.513c-4.204 0-7.611-3.408-7.611-7.611 0-4.204 3.407-7.611 7.611-7.611h.513c4.204 0 7.611 3.408 7.611 7.611s-3.407 7.611-7.611 7.611z" fill="#d3ced5"/></g><g><path d="m286.131 111.591h-.801c-4.204 0-7.611-3.408-7.611-7.611 0-4.204 3.407-7.611 7.611-7.611h.801c4.204 0 7.611 3.408 7.611 7.611s-3.407 7.611-7.611 7.611z" fill="#d3ced5"/></g><g><path d="m256.512 111.591h-.512c-4.204 0-7.611-3.408-7.611-7.611 0-4.204 3.407-7.611 7.611-7.611h.512c4.204 0 7.611 3.408 7.611 7.611.001 4.203-3.406 7.611-7.611 7.611z" fill="#d3ced5"/></g></g><g><g><path d="m256.512 146.447h-.512c-4.204 0-7.611-3.408-7.611-7.611 0-4.204 3.407-7.611 7.611-7.611h.512c4.204 0 7.611 3.408 7.611 7.611.001 4.203-3.406 7.611-7.611 7.611z" fill="#d3ced5"/></g><g><path d="m286.131 146.447h-.801c-4.204 0-7.611-3.408-7.611-7.611 0-4.204 3.407-7.611 7.611-7.611h.801c4.204 0 7.611 3.408 7.611 7.611s-3.407 7.611-7.611 7.611z" fill="#d3ced5"/></g><g><path d="m315.461 146.447h-.513c-4.204 0-7.611-3.408-7.611-7.611 0-4.204 3.407-7.611 7.611-7.611h.513c4.204 0 7.611 3.408 7.611 7.611s-3.407 7.611-7.611 7.611z" fill="#d3ced5"/></g></g><path d="m87.871 266.547h336.259v15.223h-336.259z" fill="#d3ced5"/><path d="m87.871 369.065h336.259v15.223h-336.259z" fill="#d3ced5"/></g></svg>