<svg height="512" viewBox="0 0 128 128" width="512" xmlns="http://www.w3.org/2000/svg"><g><rect fill="#f2da30" height="101.86" rx="38.105" width="76.21" x="25.888" y="19.834"/><g fill="#3ea2e5"><path d="m121.687 80.069-6.687 4.777h-6.658v-28.079h6.658l6.687 4.691z"/><path d="m6.313 80.069 6.687 4.777h6.658v-28.079h-6.658l-6.687 4.691z"/><path d="m19.667 56.767a44.34 44.34 0 0 1 44.326-43.425 44.341 44.341 0 0 1 44.326 43.425h6.681a51.014 51.014 0 0 0 -51.007-50.461 51.014 51.014 0 0 0 -51.007 50.461z"/></g><path d="m102.1 57.94v11a38.565 38.565 0 0 1 -5.4.38 37.762 37.762 0 0 1 -32.71-18.87 37.745 37.745 0 0 1 -32.7 18.87 38.458 38.458 0 0 1 -5.4-.38v-11a38.105 38.105 0 1 1 76.21 0z" fill="#f45858"/><rect fill="#6d7a84" height="7.904" rx="3.952" width="14.837" x="63.816" y="97.559"/><path d="m109.921 84.846v3.766a11.161 11.161 0 0 1 -11.148 11.149h-20.142a1.756 1.756 0 0 0 -.38.044 3.829 3.829 0 0 1 0 3.412 1.756 1.756 0 0 0 .38.044h20.142a14.664 14.664 0 0 0 14.648-14.648v-3.766h-3.5z" fill="#6d7a84"/></g></svg>